<?xml version="1.0" encoding="utf-8"?>
<!-- Svg Vector Icons : http://www.onlinewebfonts.com/icon -->
<!DOCTYPE svg PUBLIC "-//W3C//DTD SVG 1.1//EN" "http://www.w3.org/Graphics/SVG/1.1/DTD/svg11.dtd">
<svg version="1.1" xmlns="http://www.w3.org/2000/svg" xmlns:xlink="http://www.w3.org/1999/xlink" x="0px" y="0px" viewBox="0 0 256 256" enable-background="new 0 0 256 256" xml:space="preserve">
<metadata> Svg Vector Icons : http://www.onlinewebfonts.com/icon </metadata>
<g><g><g><path fill="#332211" d="M107.4,53.9C77,56.4,58.7,61,50.8,68.3c-1.5,1.4-3,3.4-3.4,4.5c-1.4,4.3-2.1,12.5-1.7,20.1c0.7,15.3,4.9,24.4,18.6,40.7c10.3,12.2,14.3,19.7,14.4,27c0.1,7.4,3.7,11.4,13.2,14.6c8.6,3,17.2,4,34.9,4.3c22,0.4,30.9-0.6,39.6-4.7c7.3-3.4,9.8-6.9,10.8-14.7c0.7-6.5,2.1-9.9,6.2-16.1c5-7.6,5.9-8.2,10.8-8.6c2.5-0.2,4.6,0,5.5,0.5c1.3,0.7,1.5,1.2,1.4,4.1c-0.1,2.9,0.1,3.6,1.4,4.6c0.8,0.6,2.2,1.2,3.3,1.2c2.1,0,4.8-2.4,4.8-4.3c0-3.8,4.5-8.1,12.1-11.8c3.6-1.7,6.4-3.7,8.6-5.8c12.4-12.3,10.1-35.7-3.9-42.4c-4.5-2.2-11-2.7-14.5-1.2c-1.3,0.6-2.5,1-2.6,1c-0.2,0-0.1-1.5,0.1-3.3c1-8.3-7.1-14.6-24.7-18.9c-8.1-2-21.7-4-33-4.9C145.2,53.6,113.5,53.4,107.4,53.9z M148.3,62.1c27.1,1.9,50.6,7.6,51.6,12.4c0.7,3.4-17.8,8.7-39.9,11.4c-11.3,1.4-48.5,1.5-60,0.3c-17.3-1.9-32.1-5.2-39.1-8.6c-6.6-3.3-3.6-6.2,10.4-9.9c10.5-2.8,26.2-5,40-5.8C119.9,61.4,140.2,61.6,148.3,62.1z M223.3,90.4c1.2,0.7,2.9,2.3,4,4.1c1.7,2.8,1.8,3.4,1.8,8.9c0,4.7-0.2,6.5-1.3,8.7c-1.8,4-5.2,7-10.9,9.7c-2.7,1.4-6.3,3.4-7.9,4.7c-2.7,2-3,2.2-4.3,1.4c-0.7-0.5-2.5-1.2-3.9-1.5l-2.6-0.7l3.3-5c3.1-4.7,7-13.4,7-15.6c0-0.7,0.3-0.9,1.1-0.6c4.6,1.9,10.5,1.5,11.8-0.9c1.8-3.4-0.4-7.4-4.4-7.4c-3.3,0-4.2-0.5-4.2-2.4c0-1.7,1.8-3.9,3.7-4.6C217.9,88.5,220.8,89.1,223.3,90.4z"/><path fill="#000000" d="M59.2,153.8c-29.6,4.5-46,11-48.7,19.3c-1.1,3.4-0.3,6.2,2.6,9.4c11.4,12.4,54.8,19.9,114.9,19.9c60,0,103.5-7.5,114.9-19.9c9.1-9.8-2.2-19.7-29.1-25.6c-7.4-1.6-24.5-4.3-27.1-4.3c-2.1,0-2.6,0.7-3.9,5.8c-1.2,4.4-1.5,4.2,7.7,6c9.2,1.8,14.5,4,16.5,6.8c1.2,1.6,1.2,1.8,0.4,3.4c-2.8,4.9-13.7,8-37,10.4c-15.5,1.6-69.1,1.6-84.6,0c-23.4-2.4-34.2-5.5-37-10.4c-0.8-1.5-0.8-1.8,0.4-3.4c2-2.8,7.3-4.9,16.5-6.8l8.4-1.7l-0.4-2.8c-0.2-1.5-0.6-3.8-1-5.1c-0.6-2.2-0.8-2.3-3.3-2.2C67.9,152.6,63.3,153.2,59.2,153.8z"/><path fill="#000000" d="M67.2,169.2c-7.9,1.6-13.7,3.4-13.7,4.3c0,1.7,15.1,4.6,33.5,6.5l3.1,0.3l-3.7-1.8c-5.2-2.5-8.6-5.2-10.3-8.1C74.6,167.6,74.9,167.6,67.2,169.2z"/><path fill="#000000" d="M180.3,169.8c-1,2.5-5.4,6.9-8.4,8.5l-2.4,1.4l4.9-0.4c5.4-0.4,20.9-3,24.3-4c1.2-0.3,2.6-0.9,3.1-1.2c0.8-0.6,0.8-0.7,0-1.2c-1.7-1.1-17.4-4.9-20.4-4.9C181.2,167.9,180.7,168.8,180.3,169.8z"/></g></g></g>
</svg>